<svg xmlns="http://www.w3.org/2000/svg" width="432" height="577" viewBox="0 0 432 577" version="1.1">
	<path d="M 200.053 72.504 C 198.157 73.365, 193.882 74.267, 190.553 74.509 C 182.253 75.112, 177.916 76.054, 178.569 77.112 C 178.871 77.600, 178.622 78, 178.017 78 C 175.866 78, 174.402 80.395, 174.700 83.426 L 175.003 86.500 173.577 83 L 172.152 79.500 172.076 83.441 C 172.005 87.127, 171.905 87.256, 170.532 85.441 C 169.348 83.876, 169.057 83.804, 169.032 85.070 C 169.014 85.933, 167.875 87.618, 166.500 88.813 C 165.125 90.009, 164 91.466, 164 92.052 C 164 92.639, 163.549 92.839, 162.998 92.499 C 162.447 92.158, 161.576 92.986, 161.061 94.339 C 160.547 95.692, 159.274 97.406, 158.233 98.149 C 157.192 98.892, 155.537 100.737, 154.555 102.250 C 153.573 103.763, 152.158 105, 151.411 105 C 149.902 105, 147 109.972, 147 112.556 C 147 113.467, 145.725 115.852, 144.166 117.856 C 142.608 119.860, 141.028 122.175, 140.655 123 C 140.283 123.825, 139.116 125.850, 138.062 127.500 C 135.839 130.982, 135.509 132.422, 137.170 131.395 C 137.921 130.931, 138.132 131.178, 137.758 132.086 C 133.512 142.409, 132.622 144.014, 131.813 142.806 C 131.272 141.998, 131.184 142.553, 131.581 144.263 C 131.934 145.783, 131.784 147.583, 131.247 148.263 C 130.710 148.943, 130.036 151.349, 129.749 153.608 C 129.463 155.868, 128.461 159.334, 127.523 161.310 C 124.649 167.367, 125.132 181.701, 128.541 191.514 C 130.067 195.906, 131.652 199.885, 132.063 200.355 C 132.474 200.825, 133.083 197.675, 133.417 193.355 C 134.911 174.039, 136.611 166.718, 140.733 161.849 C 141.670 160.742, 141.782 159.983, 141.073 159.545 C 140.376 159.114, 140.702 157.545, 142.028 154.946 C 143.135 152.776, 143.753 151, 143.402 151 C 143.050 151, 143.866 149.537, 145.215 147.750 C 146.564 145.963, 148.181 143.003, 148.808 141.174 C 149.436 139.344, 152.196 135.023, 154.943 131.572 C 158.784 126.745, 161.041 124.883, 164.718 123.507 C 167.348 122.524, 169.950 121.374, 170.500 120.953 C 171.050 120.532, 173.546 119.883, 176.048 119.510 C 180.461 118.854, 180.644 118.932, 182.251 122.167 C 183.162 124, 184.173 127.188, 184.499 129.250 C 184.869 131.594, 185.636 133, 186.545 133 C 188.331 133, 188.413 134.169, 186.750 135.905 C 185.728 136.972, 186.097 137.085, 188.772 136.521 C 191.470 135.952, 192.378 136.240, 193.956 138.166 C 195.662 140.247, 196.108 140.354, 198.069 139.158 C 200.731 137.533, 201.570 138.496, 202.551 144.299 C 202.907 146.411, 203.829 148.381, 204.600 148.677 C 205.370 148.972, 206 150.008, 206 150.979 C 206 152.265, 207.086 152.918, 210 153.384 C 212.200 153.736, 214 154.356, 214.001 154.762 C 214.001 155.168, 215.225 155.571, 216.720 155.658 C 218.215 155.745, 219.602 156.307, 219.803 156.908 C 220.003 157.509, 221.281 158, 222.642 158 C 224.004 158, 224.866 158.408, 224.558 158.906 C 224.250 159.404, 223.098 159.577, 221.999 159.289 C 220.882 158.997, 220 159.259, 220 159.883 C 220 160.498, 219.094 161, 217.986 161 C 216.879 161, 215.191 161.433, 214.236 161.963 C 209.515 164.583, 203.191 167.219, 200.528 167.678 C 198.893 167.960, 196.955 169.047, 196.221 170.095 C 195.487 171.143, 193.900 172.007, 192.693 172.015 C 191.082 172.027, 190.860 172.259, 191.857 172.890 C 192.732 173.445, 192.845 173.978, 192.176 174.391 C 191.605 174.744, 190.855 174.574, 190.508 174.013 C 190.161 173.452, 188.780 173.268, 187.439 173.605 C 185.897 173.992, 185 173.787, 185 173.049 C 185 172.407, 184.581 172.141, 184.069 172.457 C 183.557 172.774, 182.891 172.633, 182.590 172.145 C 181.489 170.364, 175.400 170.004, 164.611 171.083 C 151.342 172.409, 144.180 175.503, 138.594 182.320 C 134.551 187.254, 133.808 190.513, 136.953 189.515 C 138.839 188.916, 138.886 189.310, 138.307 200.829 L 137.707 212.763 141.603 216.891 C 144.642 220.109, 147.344 221.658, 153.875 223.924 C 161.726 226.647, 162.531 226.745, 166.720 225.484 C 169.178 224.744, 172.111 223.320, 173.238 222.319 C 175.892 219.963, 184.831 200.908, 185.632 195.899 C 186.342 191.460, 187.477 190.255, 191.753 189.399 C 195.288 188.692, 196.013 189.637, 197.915 197.429 C 199.081 202.202, 201.588 206.588, 205.236 210.236 C 206.206 211.206, 207 211.752, 207 211.448 C 207 211.145, 208.064 212.045, 209.365 213.448 C 210.665 214.852, 212.034 216, 212.406 216 C 212.779 216, 216.102 217.428, 219.792 219.174 C 228.394 223.243, 234.752 223.705, 246.979 221.148 C 252.192 220.057, 256.805 219.379, 257.229 219.641 C 258.393 220.361, 258.153 223.787, 256.885 224.571 C 255.245 225.585, 256.414 233.556, 258.510 235.652 C 260.079 237.222, 263.278 243.396, 263.439 245.167 C 263.473 245.533, 263.844 246.177, 264.264 246.597 C 264.684 247.018, 263.842 248.599, 262.392 250.112 C 259.884 252.730, 259.412 252.838, 252.628 252.351 C 248.708 252.069, 244.375 251.457, 243 250.991 C 241.625 250.526, 238.343 249.857, 235.707 249.505 C 231.926 249, 229.815 247.897, 225.707 244.279 C 222.843 241.756, 219.948 238.684, 219.274 237.452 C 218.294 235.662, 213.504 233, 211.263 233 C 211.022 233, 211.115 234.723, 211.471 236.829 C 212.406 242.364, 210.575 243.614, 204.536 241.564 C 198.796 239.615, 192.112 239.601, 189.559 241.532 C 188.491 242.339, 185.693 243, 183.340 243 C 179.813 243, 179.172 243.283, 179.683 244.615 C 180.191 245.941, 179.871 246.089, 177.901 245.442 C 172.551 243.685, 169.662 245.433, 174.112 247.735 L 176.500 248.971 173.610 248.985 C 172.021 248.993, 170.192 248.278, 169.547 247.395 C 168.541 246.019, 167.820 246.659, 164.485 251.895 C 162.346 255.253, 160.063 258, 159.413 258 C 158.762 258, 157.473 259.155, 156.548 260.567 C 155.623 261.979, 153.996 264.004, 152.933 265.067 C 151.869 266.131, 151 268.368, 151 270.044 C 151 274.091, 154.074 286.331, 155.292 287.138 C 155.822 287.489, 155.966 288.246, 155.612 288.819 C 155.257 289.393, 155.425 290.144, 155.984 290.490 C 156.543 290.835, 157 292.161, 157 293.437 C 157 295.997, 159.362 298.512, 160.883 297.572 C 161.417 297.242, 162.387 295.291, 163.038 293.236 C 164.978 287.118, 166.743 285, 169.901 285 C 174.197 285, 175.034 286.822, 174.902 295.882 C 174.767 305.143, 175.868 307.492, 179.943 306.629 C 193.937 303.664, 202 303.580, 202 306.401 C 202 307.673, 216.190 311.399, 219.160 310.907 C 221.280 310.555, 224 312.080, 224 313.621 C 224 315.163, 222.171 318.689, 220.321 320.711 C 218.670 322.517, 208.613 322.211, 202.500 320.170 C 198.271 318.757, 197.548 318.153, 197.813 316.250 C 198.067 314.421, 197.647 314, 195.563 314 C 194.039 314, 193 314.565, 193 315.393 C 193 316.480, 191.037 318, 189.632 318 C 189.520 318, 189.426 316.988, 189.424 315.750 C 189.421 314.512, 190.337 312.727, 191.460 311.783 C 192.619 310.808, 192.960 310.052, 192.250 310.033 C 191.563 310.015, 191 309.373, 191 308.607 C 191 307.190, 188.121 305.546, 187.219 306.447 C 186.948 306.719, 186.651 309.288, 186.560 312.155 C 186.464 315.181, 185.892 317.536, 185.197 317.768 C 184.539 317.987, 184 318.713, 184 319.380 C 184 320.048, 182.222 322.330, 180.049 324.452 C 177.876 326.574, 175.964 329.212, 175.799 330.314 C 175.082 335.120, 170.483 332.148, 163 322.043 C 161.625 320.186, 158.700 316.281, 156.500 313.365 C 154.300 310.449, 151.176 306.249, 149.559 304.032 C 147.671 301.445, 146.361 300.416, 145.901 301.160 C 145.507 301.797, 145.445 302.996, 145.762 303.823 C 146.138 304.803, 145.932 305.076, 145.170 304.605 C 144.526 304.207, 143.964 302.896, 143.921 301.691 C 143.878 300.486, 143.614 300.065, 143.336 300.756 C 143.057 301.447, 142.347 301.714, 141.757 301.350 C 141.066 300.923, 140.885 301.453, 141.249 302.844 C 141.629 304.297, 141.354 305, 140.406 305 C 139.578 305, 139 306.014, 139 307.469 C 139 309.173, 139.433 309.771, 140.399 309.400 C 141.168 309.105, 142.039 309.253, 142.333 309.730 C 143.125 311.011, 141.763 312.718, 139.616 313.134 C 138.251 313.399, 137.080 315.566, 135.366 321 C 134.065 325.125, 133.001 329.314, 133 330.309 C 133 331.304, 132.631 331.890, 132.181 331.612 C 131.730 331.333, 131.527 332.319, 131.729 333.803 C 131.931 335.286, 131.161 339.875, 130.017 344 C 128.874 348.125, 127.877 352.170, 127.802 352.988 C 127.658 354.575, 125.011 357.707, 124.985 356.321 C 124.976 355.870, 124.568 356.134, 124.077 356.909 C 122.943 358.700, 123.842 361.171, 125.355 360.420 C 125.985 360.107, 125.738 360.478, 124.807 361.244 C 122.916 362.800, 119 372.045, 119 374.954 C 119 375.987, 118.645 376.983, 118.211 377.167 C 117.421 377.501, 115.086 384.745, 112.476 394.965 C 110.988 400.793, 108.434 403.621, 103.729 404.651 C 99.599 405.556, 99.491 406.814, 103.479 407.562 C 107.104 408.242, 111.161 407.856, 114.242 406.538 C 115.453 406.019, 116.193 406.338, 116.671 407.586 C 117.074 408.636, 116.870 409.543, 116.180 409.773 C 115.531 409.990, 115 410.755, 115 411.475 C 115 412.194, 113.860 413.069, 112.466 413.419 C 111.072 413.769, 109.425 415.168, 108.805 416.528 C 107.942 418.423, 106.917 419, 104.411 419 C 102.613 419, 100.466 419.676, 99.640 420.503 C 98.302 421.840, 98.066 421.784, 97.496 419.989 C 97.144 418.879, 96.444 418.226, 95.939 418.537 C 95.435 418.849, 95.291 418.406, 95.618 417.552 C 96.436 415.422, 94.341 415.586, 93.080 417.750 C 92.201 419.259, 92.057 419.138, 92.030 416.867 C 92.010 415.090, 91.350 414.063, 90 413.710 C 87.591 413.080, 87.568 413.264, 89.574 417.143 C 90.439 418.816, 91.001 420.332, 90.823 420.510 C 90.644 420.689, 88.293 420.423, 85.598 419.919 C 76.512 418.222, 67.937 422.665, 73.272 426.306 C 75.490 427.819, 75.491 427.834, 73.500 429.429 C 72.326 430.371, 70.158 430.902, 68.250 430.717 C 64.352 430.339, 64.147 431.184, 67.500 433.821 C 68.875 434.903, 70.010 436.398, 70.022 437.144 C 70.034 437.890, 70.867 439.569, 71.872 440.876 L 73.699 443.253 74.287 440.315 C 74.717 438.164, 76.298 436.459, 80.187 433.953 C 83.109 432.069, 85.950 430.352, 86.500 430.137 C 87.050 429.922, 88.490 428.846, 89.699 427.746 L 91.898 425.747 92.550 428.344 C 93.239 431.088, 90.863 434.651, 89.080 433.549 C 88.565 433.231, 87.837 433.990, 87.461 435.235 C 87.085 436.481, 86.222 438.850, 85.544 440.500 C 84.865 442.150, 83.469 446.155, 82.442 449.399 C 81.317 452.953, 79.912 455.472, 78.911 455.734 C 77.996 455.973, 76.708 457.177, 76.048 458.410 C 74.527 461.252, 67.275 466, 64.455 466 C 63.275 466, 61.495 466.900, 60.500 468 C 59.505 469.100, 58.104 470, 57.387 470 C 56.671 470, 54.909 472.006, 53.471 474.458 C 52.034 476.911, 49.300 480.286, 47.395 481.958 C 45.489 483.631, 44.449 485, 45.083 485 C 45.717 485, 47.807 483.621, 49.727 481.935 C 51.647 480.249, 53.828 479.104, 54.574 479.390 C 55.867 479.886, 58.339 478.219, 63.675 473.250 C 66.706 470.428, 67 470.441, 67 473.405 C 67 474.728, 65.452 477.663, 63.560 479.928 C 61.668 482.192, 59.831 484.957, 59.477 486.071 C 58.785 488.254, 60.551 491.572, 64.230 495 C 66.025 496.672, 66.199 497.259, 65.103 497.936 C 64.349 498.402, 62.443 498.580, 60.866 498.332 C 58.175 497.907, 58 498.092, 58 501.351 C 58 505.592, 53.996 509.386, 47.741 511.070 C 43.942 512.093, 43.418 512, 41.815 510.020 C 39.905 507.661, 38 508.080, 38 510.859 C 38 511.817, 37.545 513.055, 36.988 513.612 C 35.867 514.733, 48.521 522, 51.595 522 C 53.113 522, 53.036 521.667, 51.025 519.526 C 48.807 517.165, 48.787 517.020, 50.600 516.350 C 51.645 515.964, 55.235 513.265, 58.578 510.352 C 63.184 506.340, 64.938 505.338, 65.815 506.215 C 67.512 507.912, 71.232 508.238, 72.163 506.771 C 73.444 504.752, 73.128 499.271, 71.645 497.787 C 70.530 496.673, 70.509 495.549, 71.523 491.466 C 72.201 488.735, 73.055 484.818, 73.421 482.762 C 73.812 480.567, 74.894 478.592, 76.043 477.977 C 77.317 477.295, 78 477.279, 78 477.930 C 78 479.394, 75.102 488.205, 73.935 490.291 C 73.383 491.276, 73.195 492.507, 73.517 493.027 C 73.838 493.547, 76.230 491.166, 78.832 487.736 C 81.434 484.306, 84.674 480.341, 86.032 478.925 C 93.504 471.129, 99.438 460, 96.122 460 C 95.640 460, 94.685 460.675, 94 461.500 C 92.054 463.844, 87.243 463.334, 84.390 460.481 C 83.004 459.095, 81.450 458.222, 80.935 458.540 C 78.373 460.123, 80.553 456.441, 84.946 451.765 L 89.892 446.500 96.446 446.519 C 102.610 446.537, 103 446.402, 103 444.256 C 103 441.428, 104.732 438.340, 108 435.345 C 112.859 430.890, 117.181 431.049, 112.974 435.528 C 110.754 437.891, 110.603 438.822, 110.553 450.419 C 110.508 460.855, 110.220 463.100, 108.710 464.768 C 106.982 466.678, 106.994 466.765, 109.061 467.306 C 111.281 467.886, 110.890 470, 108.562 470 C 107.836 470, 106.670 471.383, 105.970 473.072 C 105.270 474.762, 102.705 478.137, 100.270 480.572 C 97.835 483.008, 96.484 485, 97.268 485 C 99.908 485, 102.694 488.411, 102.781 491.750 C 102.881 495.560, 102.637 495.646, 99.273 493 C 97.874 491.900, 96.043 491, 95.203 491 C 92.717 491, 85.662 495.582, 83.422 498.652 C 78.792 504.999, 77.627 514.745, 80.752 521 C 82.307 524.114, 83.086 524.592, 87.807 525.335 C 90.725 525.795, 93.712 525.941, 94.444 525.660 C 95.853 525.119, 97.102 517, 95.776 517 C 95.349 517, 95 516.052, 95 514.893 C 95 513.383, 95.448 512.958, 96.582 513.393 C 97.452 513.727, 98.546 514, 99.014 514 C 101.867 514, 106.246 524.724, 106.115 531.391 C 105.996 537.469, 107.638 537.089, 108.668 530.800 C 109.852 523.570, 109.814 515.126, 108.590 513.145 C 108.129 512.399, 107.538 510.149, 107.276 508.145 C 107.015 506.140, 106.202 503.824, 105.470 502.998 C 104.738 502.172, 103.669 500.260, 103.094 498.748 C 102.205 496.408, 102.306 496.001, 103.775 496.004 C 106.757 496.010, 112.242 499.927, 111.603 501.593 C 111.284 502.424, 111.402 502.870, 111.866 502.583 C 112.329 502.297, 113.017 497.969, 113.395 492.966 C 113.941 485.738, 113.765 483.236, 112.541 480.781 C 110.591 476.873, 110.564 477, 113.364 477 C 115.920 477, 120.558 481.032, 121.532 484.101 C 122.558 487.335, 123.632 486.222, 124.884 480.626 C 125.784 476.605, 127.208 474.031, 130.535 470.407 L 134.983 465.562 132.242 463.317 C 130.393 461.803, 128.132 461.060, 125.301 461.036 C 121.595 461.004, 120.773 461.440, 118.301 464.750 C 116.760 466.813, 114.923 469.109, 114.217 469.854 C 113.512 470.599, 112.082 472.879, 111.040 474.921 C 109.048 478.825, 106.320 481.654, 105.417 480.751 C 104.692 480.025, 107.450 474.272, 110.564 470.019 C 111.984 468.079, 112.645 466.382, 112.056 466.185 C 110.421 465.640, 110.795 464.269, 113.189 462.039 C 114.392 460.918, 114.842 460, 114.189 460 C 110.732 460, 115.014 442.367, 118.750 441.218 C 120.208 440.769, 120.476 443.671, 119.023 444.167 C 118.485 444.350, 117.775 445.857, 117.444 447.516 C 116.774 450.879, 119.933 456, 122.678 456 C 123.520 456, 126.210 457.350, 128.655 459 C 131.100 460.650, 133.947 462, 134.982 462 C 137.127 462, 140.542 466.326, 141.542 470.311 C 142.442 473.896, 143.693 473.705, 148.208 469.297 C 152.256 465.344, 152.884 465.949, 150.544 471.548 C 149.481 474.092, 148.299 475.190, 146.163 475.617 C 143.537 476.143, 143.183 476.679, 142.709 480.851 C 142.419 483.408, 142.321 485.642, 142.490 485.816 C 142.660 485.990, 145.094 483.740, 147.898 480.816 C 150.703 477.892, 152.998 476.027, 152.999 476.671 C 153 477.314, 154.361 478.140, 156.024 478.505 C 157.687 478.871, 160.473 480.369, 162.215 481.835 C 163.958 483.301, 165.524 484.379, 165.696 484.232 C 165.868 484.085, 167.161 484.253, 168.568 484.606 C 169.976 484.960, 172.111 484.773, 173.314 484.192 C 175.430 483.169, 175.414 483.133, 172.786 483.068 C 169.130 482.976, 157.670 472.132, 155.501 466.711 C 154.293 463.693, 153.613 462.987, 152.749 463.851 C 152.117 464.483, 151.240 465, 150.800 465 C 149.206 465, 150.050 458.656, 152.082 455.368 C 153.772 452.633, 154.790 452, 157.500 452 C 161.396 452, 164 452.844, 164 454.107 C 164 454.598, 163.100 455, 162 455 C 159.564 455, 159.554 455.233, 161.711 461.500 C 163.278 466.051, 168.966 473, 171.126 473 C 172.550 473, 172.147 471.964, 169.500 468.818 C 166.930 465.763, 165.972 458.753, 167.957 457.526 C 168.484 457.201, 165.447 453.952, 161.207 450.306 C 156.968 446.661, 152.463 442.749, 151.194 441.613 C 149.645 440.224, 149.080 440.044, 149.471 441.063 C 150.857 444.675, 139.168 457.046, 135.646 455.694 C 134.879 455.400, 133.937 453.068, 133.554 450.512 C 133.013 446.901, 133.291 444.990, 134.803 441.933 C 135.873 439.770, 136.356 438, 135.875 438 C 135.394 438, 135 438.438, 135 438.974 C 135 441.311, 122.777 445.066, 121.563 443.103 C 121.268 442.624, 122.325 441.694, 123.914 441.036 C 126.891 439.803, 129.591 437.132, 131.719 433.313 C 132.879 431.232, 132.806 431.170, 130.219 432.046 C 127.996 432.799, 123.448 432.815, 121 432.078 C 120.725 431.995, 122.382 431.044, 124.682 429.966 C 126.982 428.887, 129.137 427.145, 129.470 426.095 C 129.803 425.044, 130.734 423.932, 131.538 423.624 C 132.342 423.315, 133 422.544, 133 421.909 C 133 421.042, 132.651 421.045, 131.597 421.920 C 130.825 422.560, 128.860 423.467, 127.230 423.934 L 124.265 424.784 127.143 419.392 L 130.020 414 126.710 414 C 120.734 414, 120.466 411.976, 126.023 408.802 C 128.760 407.239, 131 405.712, 131 405.408 C 131 404.634, 128.658 402.378, 127.725 402.254 C 125.060 401.897, 125.004 401.145, 127.639 401.079 C 130.394 401.010, 130.855 400.585, 131.415 397.604 C 131.911 394.959, 133.209 393.411, 137.284 390.604 C 142.594 386.947, 148.447 385.671, 147.400 388.399 C 147.105 389.168, 147.344 390.095, 147.932 390.458 C 148.538 390.832, 149.007 390.335, 149.015 389.309 C 149.028 387.814, 149.191 387.754, 149.954 388.960 C 150.745 390.210, 151.175 390.152, 152.939 388.555 C 154.960 386.726, 155 386.732, 155 388.845 C 155 391.692, 156.742 391.620, 157.294 388.750 L 157.728 386.500 157.864 388.750 C 157.939 389.988, 158.459 391, 159.019 391 C 159.588 391, 159.779 389.967, 159.451 388.659 C 159.079 387.179, 159.632 385.064, 160.952 382.909 C 162.101 381.034, 163.580 378.262, 164.240 376.750 C 164.903 375.228, 166.234 374, 167.219 374 C 168.199 374, 169 373.550, 169 373 C 169 372.450, 169.750 372, 170.667 372 C 171.583 372, 172.036 372.297, 171.673 372.660 C 171.310 373.023, 171.910 373.949, 173.006 374.717 C 174.103 375.485, 175 376.706, 175 377.430 C 175 379.464, 188.932 392.218, 195.755 396.430 L 201.862 400.199 202.414 406.350 C 202.718 409.732, 203.145 417.563, 203.363 423.750 C 203.683 432.839, 203.494 435, 202.380 435 C 201.621 435, 201 434.550, 201 434 C 201 433.450, 200.081 433, 198.957 433 C 197.834 433, 194.009 431.431, 190.457 429.514 C 184.106 426.084, 181.100 425.842, 187.071 429.241 C 188.753 430.198, 189.867 431.406, 189.547 431.924 C 189.226 432.443, 190.343 432.828, 192.029 432.780 C 193.791 432.730, 196.444 433.691, 198.271 435.042 C 200.019 436.335, 202.219 437.334, 203.160 437.263 C 204.261 437.180, 205.070 438.090, 205.429 439.817 C 206.339 444.188, 205.441 454.316, 203.916 456.881 C 202.913 458.566, 202.831 459.382, 203.632 459.675 C 204.872 460.127, 204.354 470.123, 203.046 471 C 202.636 471.275, 201.974 473.525, 201.575 476 C 201.176 478.475, 200.484 482.750, 200.037 485.500 C 199.590 488.250, 199.472 492.728, 199.775 495.450 L 200.326 500.400 201.975 493.450 C 202.882 489.628, 204.171 485.494, 204.839 484.264 C 205.508 483.035, 206.519 479.885, 207.085 477.264 C 207.652 474.644, 208.520 470.700, 209.013 468.500 C 209.507 466.300, 210.410 461.800, 211.019 458.500 C 211.628 455.200, 212.578 451.575, 213.128 450.445 C 213.679 449.314, 214.021 447.964, 213.888 447.445 C 213.755 446.925, 214.807 443.957, 216.224 440.849 C 217.642 437.741, 219.067 434.366, 219.389 433.348 C 219.712 432.331, 221.298 430.914, 222.913 430.199 C 226.169 428.757, 237.395 428.831, 240.423 430.314 C 243.343 431.744, 246.670 435.385, 247.525 438.085 C 247.945 439.413, 250.984 443.425, 254.278 447 C 258.611 451.702, 261.752 456.573, 265.634 464.610 C 268.585 470.720, 271 476.051, 271 476.455 C 271 476.860, 271.819 478.386, 272.820 479.846 C 274.810 482.749, 276.991 491.316, 277.015 496.326 C 277.027 498.743, 277.262 499.142, 278 498 C 278.533 497.175, 278.976 494.363, 278.985 491.750 C 278.995 488.641, 279.432 486.989, 280.250 486.970 C 280.944 486.953, 280.721 486.486, 279.750 485.920 C 278.215 485.026, 277.186 481, 278.492 481 C 279.696 481, 284.295 485.711, 285.082 487.750 C 286.466 491.334, 288 490.362, 288 485.901 C 288 481.198, 285.432 475.091, 283.092 474.231 C 280.125 473.140, 278.943 470, 281.500 470 C 282.325 470, 283 469.325, 283 468.500 C 283 467.675, 283.470 467, 284.045 467 C 285.228 467, 290 462.480, 290 461.360 C 290 460.958, 291.011 459.475, 292.246 458.064 C 294.489 455.504, 294.488 455.505, 291.496 458.166 C 289.848 459.633, 286.725 462.445, 284.555 464.416 C 280.879 467.755, 278.001 468.999, 277.999 467.250 C 277.999 466.837, 276.424 464.731, 274.499 462.568 C 272.575 460.406, 271 458.266, 271 457.813 C 271 457.359, 268.879 452.689, 266.287 447.435 C 262.513 439.782, 261.850 437.711, 262.955 437.028 C 264.288 436.204, 268.344 432.701, 277.255 424.679 C 279.590 422.577, 287.238 416.539, 294.250 411.261 C 302.454 405.087, 307 401.012, 307 399.833 C 307 398.649, 307.729 398, 309.059 398 C 310.191 398, 310.840 397.550, 310.500 397 C 310.160 396.450, 310.359 396, 310.941 396 C 311.523 396, 312 396.498, 312 397.107 C 312 397.716, 312.675 397.955, 313.500 397.638 C 314.325 397.322, 315.038 397.611, 315.085 398.281 C 315.237 400.444, 315.174 410.386, 314.984 414.379 C 314.883 416.513, 315.229 418.538, 315.754 418.879 C 316.279 419.221, 318.236 422.425, 320.104 426 C 321.972 429.575, 323.725 432.725, 324 433 C 324.275 433.275, 324.514 433.950, 324.531 434.500 C 324.610 437.049, 326.355 442.566, 327.266 443.146 C 327.824 443.501, 328.860 449.351, 329.568 456.146 C 330.276 462.940, 331.352 472.325, 331.959 477 C 332.565 481.675, 333.925 492.700, 334.980 501.500 C 337.335 521.141, 339.695 536.565, 341.560 544.500 C 342.336 547.800, 342.977 552.474, 342.985 554.887 C 342.993 557.299, 343.532 563.266, 344.181 568.147 L 345.363 577.021 388.931 576.760 L 432.500 576.500 432.364 531.500 C 432.289 506.750, 432.176 464.432, 432.114 437.461 L 432 388.422 423.250 385.709 C 418.438 384.218, 412.025 382.720, 409 382.382 C 405.975 382.043, 400.800 381.151, 397.500 380.398 C 394.200 379.645, 389.672 379.023, 387.437 379.015 C 384.308 379.003, 382.781 378.368, 380.794 376.250 C 377.919 373.185, 371.272 363.344, 369.070 358.892 C 368.283 357.301, 367.118 356, 366.480 356 C 364.917 356, 358.860 349.249, 358.554 347.166 C 358.419 346.250, 357.902 345.484, 357.405 345.465 C 355.197 345.378, 351.885 342.679, 350.356 339.720 C 348.814 336.737, 348.813 336.601, 350.345 337.872 C 351.753 339.040, 352 339.032, 352 337.823 C 352 337.042, 350.209 335.299, 348.020 333.951 C 345.831 332.603, 343.775 330.712, 343.452 329.750 C 343.129 328.788, 342.419 328, 341.874 328 C 341.328 328, 341.162 327.547, 341.504 326.993 C 341.846 326.439, 341.291 324.752, 340.269 323.243 C 337.219 318.738, 332.872 309.016, 333.473 308.044 C 333.781 307.546, 333.575 306.856, 333.016 306.510 C 332.457 306.165, 332 304.307, 332 302.382 C 332 300.457, 331.615 299.120, 331.144 299.411 C 330.674 299.702, 330.490 298.886, 330.737 297.598 C 331.204 295.151, 328.586 289, 327.076 289 C 325.823 289, 323.975 267.803, 323.610 249.254 C 323.484 242.853, 322.956 238.556, 322.204 237.804 C 321.542 237.142, 321 235.620, 321 234.422 C 321 233.224, 320.227 230.502, 319.281 228.372 C 317.663 224.725, 317.423 223.970, 317.100 221.500 C 317.028 220.950, 316.533 221.175, 316 222 C 315.467 222.825, 315.021 227.550, 315.009 232.500 C 314.992 239.388, 314.574 242.127, 313.226 244.170 C 311.092 247.405, 305.849 252.445, 304.583 252.477 C 303.312 252.509, 302.592 255, 303.855 255 C 304.416 255, 304.877 255.788, 304.878 256.750 C 304.880 257.713, 305.117 261.296, 305.406 264.712 C 305.936 270.983, 304.793 273.682, 302.794 270.878 C 302.033 269.811, 301.938 269.895, 302.374 271.250 C 303.064 273.394, 299.503 273.753, 298.685 271.622 C 298.079 270.043, 299.779 268, 301.700 268 C 302.415 268, 303 267.523, 303 266.941 C 303 266.359, 302.656 266.095, 302.236 266.354 C 301.815 266.614, 301.537 264.875, 301.617 262.490 C 301.726 259.266, 301.424 258.284, 300.441 258.661 C 298.431 259.432, 296 263.636, 296 266.342 C 296 268.725, 293.472 271.805, 292.397 270.731 C 291.529 269.863, 291.191 265, 291.999 265 C 292.397 265, 292.518 263.928, 292.267 262.617 C 292.017 261.307, 292.304 259.930, 292.906 259.558 C 293.508 259.186, 294 258.009, 294 256.941 C 294 255.873, 294.337 254.996, 294.750 254.992 C 295.919 254.980, 298.019 249.839, 297.318 248.705 C 296.973 248.147, 297.159 247.980, 297.732 248.334 C 299.114 249.189, 300.048 245.448, 298.771 244.171 C 297.125 242.525, 298.903 241, 302.470 241 C 307.719 241, 310.644 236.851, 310.532 229.563 C 310.465 225.239, 310.020 223.591, 308.722 222.864 C 306.575 221.663, 306.451 216.701, 308.524 214.980 C 310.401 213.422, 310.512 213.546, 311.672 218.500 L 312.608 222.500 313.865 216.198 C 315.116 209.922, 314.206 203.477, 311.851 201.938 C 311.378 201.629, 310.760 196.679, 310.477 190.938 C 310.195 185.197, 309.753 176.123, 309.496 170.773 C 309.171 164, 308.284 158.914, 306.576 154.023 C 305.226 150.160, 304.375 147, 304.683 147 C 304.992 147, 304.806 146.438, 304.271 145.750 C 303.735 145.063, 302.466 142.137, 301.451 139.250 C 300.435 136.363, 299.347 134, 299.032 134 C 298.716 134, 297.352 131.975, 296 129.500 C 294.648 127.025, 293.195 125, 292.771 125 C 292.347 125, 291.985 124.438, 291.967 123.750 C 291.916 121.842, 288.372 118, 286.663 118 C 284.707 118, 281.706 112.278, 283.351 111.686 C 283.983 111.459, 284.173 110.923, 283.774 110.494 C 283.375 110.066, 282.458 110.205, 281.737 110.804 C 280.718 111.649, 280.043 111.010, 278.716 107.946 C 277.775 105.776, 276.607 104, 276.120 104 C 275.632 104, 275.005 103.129, 274.727 102.064 C 274.351 100.625, 273.390 100.151, 270.987 100.219 C 268.929 100.278, 267.413 99.702, 266.815 98.635 C 266.299 97.712, 265.451 97.221, 264.931 97.543 C 263.983 98.129, 261 95.768, 261 94.432 C 261 94.041, 261.788 93.095, 262.750 92.330 C 264.335 91.070, 264.218 90.965, 261.500 91.219 C 259.375 91.418, 258.500 91.062, 258.500 90 C 258.500 87.925, 256.861 86.933, 254.599 87.638 C 253.144 88.092, 252.843 87.852, 253.317 86.615 C 253.711 85.591, 253.413 85, 252.503 85 C 250.844 85, 243.767 81.858, 242.945 80.756 C 242.639 80.347, 240.238 79.610, 237.608 79.119 C 234.978 78.628, 232.325 77.725, 231.713 77.113 C 231.101 76.501, 229.334 76, 227.786 76 C 225.092 76, 221.134 74.354, 219.930 72.733 C 219.617 72.311, 215.792 71.734, 211.430 71.452 C 205.492 71.068, 202.634 71.332, 200.053 72.504 M 168.079 81.583 C 168.127 82.748, 168.364 82.985, 168.683 82.188 C 168.972 81.466, 168.936 80.603, 168.604 80.271 C 168.272 79.939, 168.036 80.529, 168.079 81.583 M 269 98 C 269 98.550, 269.477 99, 270.059 99 C 270.641 99, 270.840 98.550, 270.500 98 C 270.160 97.450, 269.684 97, 269.441 97 C 269.198 97, 269 97.450, 269 98 M 185.158 128 C 185.158 129.375, 185.385 129.938, 185.662 129.250 C 185.940 128.563, 185.940 127.438, 185.662 126.750 C 185.385 126.063, 185.158 126.625, 185.158 128 M 134.564 134.707 C 134.022 136.132, 134.136 136.247, 135.124 135.267 C 135.808 134.588, 136.115 133.781, 135.807 133.474 C 135.499 133.166, 134.940 133.721, 134.564 134.707 M 270 160.559 C 270 161.416, 270.457 161.835, 271.016 161.490 C 271.575 161.144, 271.774 160.443, 271.457 159.931 C 270.600 158.544, 270 158.802, 270 160.559 M 242 163.759 C 242 164.177, 242.851 165.050, 243.891 165.700 C 245.532 166.725, 245.714 166.624, 245.274 164.940 C 244.798 163.119, 242 162.110, 242 163.759 M 271.289 167.312 C 271.653 168.260, 270.992 168.506, 268.896 168.198 C 266.914 167.907, 265.995 168.203, 265.985 169.137 C 265.973 170.197, 265.754 170.166, 265 169 C 264.278 167.883, 264.027 168.448, 264.015 171.215 C 264.005 173.836, 264.818 175.898, 266.776 178.215 C 268.303 180.022, 270.179 182.738, 270.945 184.250 C 271.711 185.762, 272.824 187.007, 273.419 187.015 C 274.014 187.024, 273.825 187.482, 273 188.034 C 271.689 188.911, 271.722 189.208, 273.259 190.386 C 276.131 192.586, 277.979 206.341, 275.170 204.605 C 274.789 204.370, 273.651 204.782, 272.639 205.522 C 271.002 206.719, 270.936 207.284, 272.036 210.683 C 272.715 212.782, 274.162 216.271, 275.251 218.436 C 277.382 222.673, 280.392 231.513, 281.474 236.712 C 281.938 238.944, 283.083 240.394, 285.225 241.462 C 289.196 243.443, 289 243.536, 289 239.682 C 289 237.856, 289.744 233.919, 290.654 230.932 C 292.902 223.553, 292.899 210.265, 290.648 201.500 C 287.717 190.086, 281.214 175.525, 276.818 170.531 C 272.982 166.172, 270.239 164.576, 271.289 167.312 M 151.500 211 C 151.840 211.550, 152.568 212, 153.118 212 C 153.668 212, 153.840 211.550, 153.500 211 C 153.160 210.450, 152.432 210, 151.882 210 C 151.332 210, 151.160 210.450, 151.500 211 M 265.079 214.583 C 265.127 215.748, 265.364 215.985, 265.683 215.188 C 265.972 214.466, 265.936 213.603, 265.604 213.271 C 265.272 212.939, 265.036 213.529, 265.079 214.583 M 265.543 217.931 C 265.226 218.443, 265.425 219.144, 265.984 219.490 C 266.543 219.835, 267 219.416, 267 218.559 C 267 216.802, 266.400 216.544, 265.543 217.931 M 306 242.885 C 304.102 245.059, 303.626 249.002, 305.262 248.994 C 306.275 248.989, 309.144 245.243, 310.809 241.750 C 311.523 240.253, 307.461 241.212, 306 242.885 M 300 248.441 C 300 249.234, 300.408 250.134, 300.907 250.442 C 301.405 250.751, 301.578 250.102, 301.290 249.001 C 300.679 246.666, 300 246.371, 300 248.441 M 215.029 249.961 C 213.817 250.727, 213.752 251.620, 214.660 255.019 C 215.669 258.802, 215.562 259.347, 213.381 261.528 C 210.147 264.762, 210.389 266.003, 214.250 265.985 C 219.111 265.962, 219.825 265.042, 220.155 258.365 C 220.535 250.706, 218.674 247.656, 215.029 249.961 M 284.304 253.005 C 282.547 254.652, 280.170 256, 279.023 256 C 277.876 256, 276.685 256.658, 276.376 257.462 C 276.068 258.266, 275.007 259.180, 274.019 259.494 C 273.031 259.807, 271.048 261.153, 269.611 262.484 C 267.314 264.614, 267 265.683, 267 271.384 C 267 277.439, 267.196 278.004, 269.993 279.995 C 271.639 281.167, 273.509 281.803, 274.148 281.409 C 274.828 280.988, 275.040 281.126, 274.660 281.741 C 274.303 282.318, 274.669 283.043, 275.474 283.352 C 276.278 283.660, 277.203 283.481, 277.529 282.954 C 277.904 282.346, 278.808 282.362, 279.995 282.997 C 282.697 284.443, 282.717 284.429, 284.879 279.540 C 288.991 270.244, 291.346 251.251, 288.500 250.333 C 287.950 250.155, 286.062 251.358, 284.304 253.005 M 297.636 252.506 C 297.321 253.328, 297.472 254, 297.972 254 C 299.328 254, 300.170 252.223, 299.121 251.575 C 298.620 251.265, 297.952 251.684, 297.636 252.506 M 295.727 258.064 C 296.002 259.116, 296.626 259.731, 297.114 259.430 C 298.430 258.616, 298.188 257.286, 296.613 256.682 C 295.642 256.309, 295.376 256.724, 295.727 258.064 M 294.667 261.667 C 294.300 262.033, 294.014 263.046, 294.030 263.917 C 294.055 265.217, 294.251 265.174, 295.122 263.675 C 296.199 261.823, 295.887 260.447, 294.667 261.667 M 294.079 267.583 C 294.127 268.748, 294.364 268.985, 294.683 268.188 C 294.972 267.466, 294.936 266.603, 294.604 266.271 C 294.272 265.939, 294.036 266.529, 294.079 267.583 M 167.989 270.250 C 166.899 272.038, 166.006 273.874, 166.004 274.332 C 166.001 274.973, 171.480 272.208, 173.893 270.351 C 174.491 269.890, 171.878 267, 170.863 267 C 170.372 267, 169.079 268.462, 167.989 270.250 M 296.733 276.405 C 295.681 277.203, 295.218 278.405, 295.590 279.373 C 295.935 280.272, 295.719 281, 295.107 281 C 294.498 281, 294 281.450, 294 282 C 294 282.550, 294.633 283, 295.406 283 C 296.318 283, 296.630 283.700, 296.293 284.989 C 296.007 286.083, 295.304 286.688, 294.732 286.334 C 294.115 285.953, 293.992 286.178, 294.430 286.886 C 294.857 287.578, 296.039 287.805, 297.235 287.425 C 298.893 286.899, 299.173 287.106, 298.651 288.466 C 298.293 289.400, 298 290.407, 298 290.704 C 298 291.002, 297.325 290.685, 296.500 290 C 295.244 288.958, 295 289.111, 295 290.940 C 295 292.465, 295.529 293.039, 296.750 292.838 C 297.712 292.679, 299.066 292.905, 299.757 293.338 C 301.428 294.387, 302.632 291.232, 301.133 289.733 C 299.134 287.734, 299.905 287, 304 287 C 306.889 287, 308 287.417, 308 288.500 C 308 290.198, 306.434 290.511, 305.500 289 C 304.467 287.329, 303 287.881, 303 289.941 C 303 292.194, 304.572 293.502, 305.492 292.014 C 306.478 290.418, 310.270 292.854, 309.584 294.642 C 309.142 295.794, 309.519 295.975, 311.256 295.441 C 314.410 294.472, 314.389 294.536, 313.088 289.786 C 312.442 287.429, 311.803 285.050, 311.668 284.500 C 311.067 282.060, 307.465 277.775, 304.901 276.449 C 301.453 274.666, 299.042 274.653, 296.733 276.405 M 212.872 282.986 C 210.876 284.051, 208.954 285.678, 208.600 286.600 C 208.037 288.068, 208.519 288.201, 212.456 287.661 C 217.830 286.924, 221.152 285.061, 220.763 283 C 220.346 280.790, 216.995 280.784, 212.872 282.986 M 298.667 283.667 C 298.300 284.033, 298 284.798, 298 285.367 C 298 285.993, 298.466 285.934, 299.183 285.217 C 299.834 284.566, 300.134 283.801, 299.850 283.517 C 299.566 283.233, 299.033 283.300, 298.667 283.667 M 303 284.441 C 303 285.298, 303.450 286, 304 286 C 304.550 286, 305 285.577, 305 285.059 C 305 284.541, 304.550 283.840, 304 283.500 C 303.450 283.160, 303 283.584, 303 284.441 M 291 292.559 C 291 293.416, 290.550 293.840, 290 293.500 C 289.450 293.160, 289 293.407, 289 294.048 C 289 294.700, 289.697 294.947, 290.582 294.607 C 291.452 294.273, 292.352 294, 292.582 294 C 292.812 294, 293 293.325, 293 292.500 C 293 291.675, 292.550 291, 292 291 C 291.450 291, 291 291.702, 291 292.559 M 125.374 349.467 C 125.065 350.274, 125.004 351.511, 125.240 352.217 C 125.476 352.923, 125.906 352.262, 126.196 350.750 C 126.762 347.797, 126.295 347.068, 125.374 349.467 M 289.912 376.328 C 289.039 376.973, 288.486 377.979, 288.684 378.565 C 289.065 379.693, 283.648 385, 282.116 385 C 281.620 385, 280.917 384.225, 280.553 383.278 C 280.168 382.274, 279.602 381.970, 279.196 382.548 C 278.813 383.094, 277.362 384.039, 275.972 384.648 C 273.132 385.891, 272.389 389.248, 274.556 391.047 C 275.338 391.696, 275.711 392.659, 275.384 393.188 C 275.057 393.716, 274.165 392.944, 273.400 391.470 C 272.636 389.997, 272.260 388.389, 272.564 387.896 C 273.606 386.211, 272.213 386.999, 269.241 389.775 C 267.607 391.302, 263.221 394.114, 259.495 396.025 C 255.769 397.936, 251.883 399.944, 250.860 400.487 C 248.774 401.594, 248.317 404.992, 250.250 405.015 C 251.168 405.027, 251.192 405.227, 250.341 405.768 C 249.473 406.320, 249.556 408.260, 250.670 413.502 C 251.488 417.351, 252.418 421.175, 252.737 422 C 253.055 422.825, 253.246 423.970, 253.161 424.545 C 252.917 426.192, 256.669 432.997, 257.412 432.255 C 257.779 431.888, 258.339 432.580, 258.656 433.794 C 258.974 435.007, 259.691 436, 260.249 436 C 261.329 436, 273.426 426.345, 283.665 417.310 C 287.056 414.319, 291.872 410.419, 294.368 408.644 C 296.864 406.870, 300.109 403.636, 301.580 401.459 C 303.050 399.282, 304.611 397.270, 305.048 396.990 C 305.484 396.709, 306.131 395.326, 306.485 393.916 C 307.008 391.831, 306.433 390.677, 303.397 387.728 C 301.345 385.735, 298.491 383.618, 297.055 383.023 C 295.620 382.428, 293.783 380.415, 292.973 378.549 C 291.738 375.705, 291.243 375.346, 289.912 376.328 M 295.985 385.518 C 294.918 386.804, 294.919 387.301, 295.989 388.292 C 297.021 389.248, 297.132 389.215, 296.519 388.138 C 296.062 387.335, 296.297 386.434, 297.093 385.943 C 297.835 385.484, 298.182 384.848, 297.864 384.530 C 297.545 384.212, 296.700 384.657, 295.985 385.518 M 159 400.320 C 159 401.365, 163.921 409, 164.594 409 C 164.907 409, 164.154 407.313, 162.922 405.250 C 160.382 401.002, 159 399.264, 159 400.320 M 94.872 409.750 C 93.629 411.336, 93.664 411.371, 95.250 410.128 C 96.916 408.821, 97.445 408, 96.622 408 C 96.415 408, 95.627 408.788, 94.872 409.750 M 221.250 414.789 C 218.093 415.117, 216.848 417.170, 219 418.500 C 219.550 418.840, 220 419.991, 220 421.059 C 220 422.795, 220.738 423, 227 423 C 232.396 423, 234 422.673, 234 421.573 C 234 420.789, 233.213 419.941, 232.250 419.689 C 230.583 419.254, 230.583 419.226, 232.250 419.116 C 234.120 418.992, 234.418 418.171, 233.235 416.400 C 232.395 415.142, 226.051 414.290, 221.250 414.789 M 171.020 417.524 C 171.716 418.362, 172.491 418.842, 172.743 418.591 C 173.436 417.897, 172.027 416, 170.819 416 C 170.155 416, 170.231 416.574, 171.020 417.524 M 118 419 C 118 419.550, 119.237 419.968, 120.750 419.930 C 123.187 419.867, 123.272 419.762, 121.500 419 C 118.769 417.826, 118 417.826, 118 419 M 174 419.364 C 174 419.639, 175.350 420.825, 177 422 C 178.650 423.175, 180 423.911, 180 423.636 C 180 423.361, 178.650 422.175, 177 421 C 175.350 419.825, 174 419.089, 174 419.364 M 55.115 428.908 C 53.214 430.112, 56.773 432, 60.943 432 C 63.767 432, 63.915 431.837, 62.768 430 C 61.467 427.917, 57.560 427.359, 55.115 428.908 M 43 433.923 C 43 434.431, 41.763 436.342, 40.250 438.169 L 37.500 441.491 40.656 438.995 C 43.762 436.540, 45.681 433, 43.906 433 C 43.408 433, 43 433.415, 43 433.923 M 307.245 440.252 C 303.453 444.092, 302.199 446.046, 302.584 447.517 C 302.873 448.623, 302.643 450.647, 302.071 452.014 C 301.194 454.115, 301.125 453.880, 301.630 450.500 L 302.227 446.500 299.864 448.778 C 297.851 450.719, 297.500 452.030, 297.500 457.609 C 297.500 463.784, 297.306 464.334, 294.137 467.167 C 290.402 470.507, 290.980 473.151, 294.978 471.012 C 297.966 469.413, 298.998 470.769, 296.397 472.877 C 294.906 474.086, 294.147 476.122, 293.786 479.876 C 293.506 482.787, 293.608 484.634, 294.013 483.979 C 294.418 483.324, 295.191 485.863, 295.731 489.620 C 296.928 497.942, 295.898 502.359, 291.886 506.106 L 288.972 508.828 292.277 512.332 C 296.432 516.738, 302.015 527.444, 301.954 530.890 C 301.918 532.936, 301.305 532.203, 299.120 527.500 C 297.587 524.200, 294.145 518.986, 291.471 515.912 L 286.609 510.325 283.247 513.686 C 281.399 515.535, 279.520 516.822, 279.074 516.546 C 278.627 516.270, 278.316 519.512, 278.381 523.751 L 278.500 531.458 274.500 532.852 C 272.246 533.638, 266.134 534.302, 260.500 534.373 C 248.213 534.529, 224.570 532.176, 220.500 530.393 C 215.512 528.207, 201.645 523.017, 201.460 523.267 C 201.365 523.395, 200.475 525.668, 199.482 528.317 C 197.647 533.213, 193.719 538.248, 191 539.189 C 189.709 539.636, 189.744 539.983, 191.250 541.683 C 192.212 542.769, 193.014 544.297, 193.032 545.079 C 193.049 545.860, 193.724 547.374, 194.532 548.441 C 195.339 549.509, 196 551.448, 196 552.750 C 196 554.052, 196.399 554.872, 196.886 554.570 C 198.259 553.722, 198.936 557.746, 198.309 563.035 C 197.776 567.542, 197.540 567.864, 194.332 568.466 C 189.159 569.436, 182.760 565.001, 180.039 558.559 C 178.111 553.995, 177.828 553.743, 176.325 555.247 C 174.821 556.751, 175.204 557.422, 181.348 564.059 C 185.007 568.010, 188 571.794, 188 572.467 C 188 573.140, 188.823 574.435, 189.829 575.345 C 191.482 576.841, 196.721 577, 244.329 577 C 273.298 577, 297 576.651, 297 576.223 C 297 575.030, 308.147 563.551, 311.258 561.541 C 312.954 560.446, 316.131 559.709, 319.506 559.630 L 324.996 559.500 324.998 553.860 C 325 546.865, 321.344 528.635, 319.836 528.121 C 319.224 527.912, 316.198 525.194, 313.112 522.081 C 310.025 518.968, 305.748 515.130, 303.608 513.551 C 300.017 510.903, 299.854 510.580, 301.500 509.377 C 303.287 508.070, 306.934 508.124, 310.290 509.507 C 311.760 510.113, 311.540 509.195, 309.061 504.372 C 307.401 501.143, 304.844 495.174, 303.380 491.109 C 301.915 487.043, 299.843 482.843, 298.775 481.775 C 294.293 477.293, 301.223 478.501, 306.482 483.118 C 308.417 484.817, 310 485.801, 310 485.304 C 310 484.807, 309.590 483.972, 309.088 483.450 C 308.586 482.927, 307.627 478.900, 306.957 474.500 C 306.286 470.100, 305.122 465.082, 304.369 463.349 C 302.299 458.584, 302.681 458.298, 306.355 461.860 C 308.201 463.648, 310.753 467.337, 312.026 470.056 C 314.787 475.951, 316.513 476.521, 315.642 471.250 C 315.301 469.188, 315.017 466.038, 315.011 464.250 C 315.005 462.462, 314.612 461, 314.139 461 C 313.665 461, 313.446 462.238, 313.652 463.750 C 313.928 465.773, 313.627 465.442, 312.513 462.500 C 311.680 460.300, 309.813 456.123, 308.364 453.218 C 306.915 450.314, 305.928 447.738, 306.171 447.495 C 306.414 447.252, 308.275 448.668, 310.307 450.641 L 314 454.228 313.968 448.364 C 313.949 444.801, 313.360 441.738, 312.468 440.559 C 310.482 437.933, 310.621 437, 313 437 C 314.100 437, 315 436.550, 315 436 C 315 433.731, 312.131 435.305, 307.245 440.252 M 52.977 437.873 C 51.615 439.006, 50.973 439.948, 51.550 439.967 C 52.127 439.985, 53.140 439.460, 53.800 438.800 C 54.733 437.867, 55 437.867, 55 438.800 C 55 439.460, 55.638 440, 56.417 440 C 57.196 440, 57.983 440.416, 58.167 440.924 C 58.350 441.433, 59.576 440.971, 60.892 439.899 C 63.702 437.608, 63.411 437.103, 58.851 436.363 C 56.320 435.953, 54.822 436.338, 52.977 437.873 M 39.213 442.279 C 35.839 444.637, 35.148 446, 37.326 446 C 38.814 446, 43.605 441.272, 42.866 440.533 C 42.605 440.271, 40.961 441.057, 39.213 442.279 M 60.441 445.468 C 59.348 446.295, 59.046 446.950, 59.750 446.968 C 61.518 447.013, 61.303 455.016, 59.468 457.441 C 58.661 458.509, 58 460.186, 58 461.168 C 58 462.150, 56.875 463.691, 55.500 464.592 C 54.125 465.493, 53 466.628, 53 467.115 C 53 468.831, 56.773 467.974, 58.128 465.951 C 58.883 464.824, 60.481 463.831, 61.681 463.744 C 62.880 463.656, 63.819 463.341, 63.767 463.042 C 63.715 462.744, 64.653 460.310, 65.851 457.633 C 67.868 453.126, 67.917 452.540, 66.510 449.720 C 64.791 446.273, 65.049 445.546, 67.675 446.437 C 70.352 447.345, 73.349 450.150, 74.689 453 C 75.718 455.188, 75.875 455.250, 75.948 453.500 C 76.015 451.870, 76.203 451.772, 76.961 452.971 C 77.473 453.780, 78.213 454.120, 78.606 453.727 C 78.999 453.334, 78.609 452.222, 77.738 451.256 C 76.868 450.290, 75.847 448.262, 75.470 446.750 C 74.813 444.119, 74.514 444, 68.583 444 C 64.679 444, 61.663 444.544, 60.441 445.468 M 39.006 447.975 C 38.106 448.544, 37.632 450.058, 37.814 451.789 C 37.992 453.483, 37.476 455.190, 36.558 455.952 C 34.357 457.778, 34.617 459.675, 37.494 462.776 C 39.167 464.581, 39.790 466.129, 39.387 467.483 C 38.712 469.753, 35.148 472.944, 33.250 472.978 C 32.563 472.990, 32 474.090, 32 475.423 C 32 476.756, 30.829 479.238, 29.399 480.938 C 26.706 484.138, 26.762 487, 29.518 487 C 32.872 487, 37.036 483.784, 40.563 478.471 C 44.681 472.267, 44.758 468.501, 40.853 464.343 C 38.528 461.868, 38.081 454.547, 39.955 449.620 C 41.073 446.677, 41.069 446.671, 39.006 447.975 M 175 461.465 C 175 461.720, 176.012 462.469, 177.250 463.129 C 179.290 464.216, 179.372 464.172, 178.128 462.664 C 176.850 461.115, 175 460.406, 175 461.465 M 186.098 467.757 C 187.528 468.715, 189.453 470.268, 190.377 471.208 C 191.302 472.147, 192.720 472.661, 193.529 472.351 C 194.338 472.040, 195.001 472.172, 195.002 472.643 C 195.003 473.114, 196.353 473.594, 198.002 473.710 C 199.651 473.825, 200.998 473.600, 200.996 473.210 C 200.992 472.358, 193.101 469.013, 190.989 468.968 C 190.170 468.951, 188.626 468.276, 187.559 467.468 C 186.491 466.661, 185.141 466.003, 184.559 466.007 C 183.976 466.010, 184.669 466.798, 186.098 467.757 M 162.500 471 C 162.160 471.550, 162.359 472, 162.941 472 C 163.523 472, 164 471.550, 164 471 C 164 470.450, 163.802 470, 163.559 470 C 163.316 470, 162.840 470.450, 162.500 471 M 184.750 472.662 C 185.438 472.940, 186.563 472.940, 187.250 472.662 C 187.938 472.385, 187.375 472.158, 186 472.158 C 184.625 472.158, 184.063 472.385, 184.750 472.662 M 196 476.059 C 196 476.641, 196.450 476.840, 197 476.500 C 197.550 476.160, 198 475.684, 198 475.441 C 198 475.198, 197.550 475, 197 475 C 196.450 475, 196 475.477, 196 476.059 M 314.747 477.340 C 314.332 478.352, 314.247 479.590, 314.556 480.090 C 314.865 480.591, 314.684 481, 314.153 481 C 313.622 481, 313.430 481.930, 313.728 483.066 C 314.608 486.434, 316.171 483.681, 315.818 479.382 C 315.582 476.502, 315.306 475.975, 314.747 477.340 M 150.566 481.890 C 149.439 485.668, 146 498.499, 146 498.926 C 146 499.183, 147.463 498.008, 149.250 496.316 C 152.770 492.984, 157.019 490.451, 156.969 491.715 C 156.952 492.147, 155.829 494.300, 154.474 496.500 C 153.119 498.700, 152.008 501.213, 152.005 502.085 C 152.002 502.957, 151.073 506.492, 149.941 509.942 C 147.597 517.082, 147.973 518.737, 150.861 513.989 C 152.911 510.617, 157.535 507.018, 159.832 507.007 C 160.802 507.002, 160.621 507.881, 159.164 510.250 C 158.054 512.054, 156.413 517.951, 155.476 523.500 C 154.547 529, 153.584 533.837, 153.335 534.250 C 153.086 534.663, 153.282 535, 153.772 535 C 154.262 535, 155.240 533.921, 155.946 532.602 C 156.652 531.283, 158.181 529.779, 159.344 529.260 C 161.166 528.447, 161.461 527.454, 161.479 522.078 C 161.496 517.035, 161.879 515.562, 163.475 514.395 C 165.244 513.101, 165.302 512.718, 164.035 510.725 C 163.118 509.284, 162.551 505.191, 162.426 499.105 C 162.260 491.086, 161.958 489.559, 160.366 488.688 C 159.340 488.126, 156.823 486.004, 154.773 483.974 C 151.814 481.043, 150.947 480.613, 150.566 481.890 M 193.586 486 C 193.145 489.882, 191.821 494.388, 190.299 497.188 C 187.852 501.688, 187.799 502.135, 188.979 508.388 C 189.737 512.405, 189.934 517.315, 189.493 521.201 L 188.778 527.500 194.887 521.500 C 198.247 518.200, 200.997 514.976, 200.998 514.335 C 200.999 513.694, 199.697 511.940, 198.104 510.436 C 195.392 507.876, 195.033 506.350, 196.124 502 C 196.331 501.175, 196.950 500.169, 197.500 499.765 C 198.147 499.290, 198.114 499.025, 197.407 499.015 C 196.702 499.005, 196.535 497.670, 196.935 495.250 C 197.444 492.173, 196.488 485.982, 194.658 480.500 C 194.474 479.950, 193.992 482.425, 193.586 486 M 15.864 485.665 C 15.114 486.569, 12.995 487.939, 11.155 488.708 C 8.291 489.905, 7.501 489.905, 5.655 488.708 C 2.184 486.457, 0.998 487.639, 1.015 493.333 C 1.027 497.124, 1.298 498.100, 2.034 497 C 2.912 495.689, 3.207 495.720, 4.379 497.250 C 5.117 498.212, 6.358 499, 7.138 499 C 9.467 499, 13 496.019, 13 494.053 C 13 492.866, 14.557 491.489, 17.421 490.142 C 21.454 488.247, 23.743 486.321, 22.850 485.574 C 21.193 484.188, 17.044 484.242, 15.864 485.665 M 314.660 486.769 C 315.298 487.174, 316.018 488.855, 316.260 490.503 C 316.659 493.221, 316.714 493.151, 316.850 489.750 C 316.969 486.783, 316.635 486.003, 315.250 486.015 C 314.114 486.025, 313.907 486.290, 314.660 486.769 M 181.271 490.498 C 177.572 494.397, 172.222 495.878, 168.294 494.088 C 166.890 493.449, 165.561 493.106, 165.340 493.327 C 165.119 493.548, 164.662 496.061, 164.324 498.911 C 163.757 503.702, 165.362 511.876, 166.910 512.077 C 167.235 512.119, 168.175 512.331, 169 512.548 C 169.825 512.766, 171.400 513.069, 172.500 513.222 C 175.829 513.685, 179.100 517.753, 178.396 520.557 C 177.560 523.889, 178.542 523.629, 182.454 519.480 C 186.295 515.407, 187.174 512.178, 185.727 507.462 C 184.715 504.166, 184.646 504.132, 181.898 505.553 C 178.009 507.564, 174.320 507.361, 170.368 504.918 C 166.066 502.260, 166.119 501.421, 170.597 501.294 C 174.736 501.177, 180.453 497.075, 183.337 492.153 C 186.061 487.504, 184.954 486.617, 181.271 490.498 M 35.717 490.616 C 35.379 490.955, 33.653 491.528, 31.882 491.890 L 28.662 492.549 31.193 494.207 C 33.652 495.818, 33.785 495.783, 35.892 492.933 C 37.735 490.439, 37.606 488.727, 35.717 490.616 M 25 492.807 C 25 493.251, 23.829 494.038, 22.398 494.557 C 20.473 495.255, 19.368 496.800, 18.148 500.497 C 16.684 504.936, 15.948 505.755, 11.552 507.831 C 8.673 509.191, 5.432 509.997, 3.802 509.758 C 1.053 509.354, 1 509.440, 1 514.329 C 1 518.226, 1.599 520.094, 3.750 522.906 C 5.900 525.716, 6.484 527.536, 6.427 531.250 C 6.358 535.752, 7.145 537.192, 8.488 535.019 C 8.822 534.479, 8.564 531.217, 7.915 527.769 C 6.773 521.702, 6.603 513.063, 7.606 512.061 C 9.063 510.604, 11.566 514.213, 12.145 518.607 C 12.499 521.298, 13.727 525.525, 14.872 528 L 16.954 532.500 16.243 528.500 C 14.392 518.082, 17.848 506, 22.681 506 C 26.791 506, 26.955 514.245, 22.947 519.340 C 20.055 523.017, 18.023 528.370, 18.633 530.705 C 18.968 531.987, 18.584 532.945, 17.581 533.331 C 16.711 533.664, 16 534.318, 16 534.783 C 16 535.550, 22.257 539, 23.647 539 C 23.966 539, 23.929 537.015, 23.566 534.590 C 22.922 530.296, 23.022 530.081, 27.351 526.462 C 29.797 524.418, 32.385 521.649, 33.102 520.309 C 33.958 518.710, 35.023 518.034, 36.203 518.343 C 38.754 519.010, 38.429 517.327, 35.656 515.510 C 32.542 513.470, 29.199 502.670, 31.007 500.491 C 31.606 499.770, 31.007 498.081, 29.306 495.689 C 26.835 492.217, 25 490.989, 25 492.807 M 314.500 502 C 314.840 502.550, 315.316 503, 315.559 503 C 315.802 503, 316 502.550, 316 502 C 316 501.450, 315.523 501, 314.941 501 C 314.359 501, 314.160 501.450, 314.500 502 M 198.500 505 C 198.160 505.550, 198.359 506, 198.941 506 C 199.523 506, 200 505.550, 200 505 C 200 504.450, 199.802 504, 199.559 504 C 199.316 504, 198.840 504.450, 198.500 505 M 316 504.794 C 316 505.323, 316.727 506.358, 317.615 507.096 C 319.013 508.256, 319.181 508.182, 318.865 506.551 C 318.489 504.607, 316 503.082, 316 504.794 M 278 510.500 C 278 513.158, 278.298 515.035, 278.662 514.671 C 279.424 513.909, 279.312 506.979, 278.525 506.192 C 278.236 505.903, 278 507.842, 278 510.500 M 68 509.794 C 68 510.916, 68.461 511.987, 69.024 512.175 C 69.587 512.362, 70.320 514.200, 70.654 516.258 C 71.148 519.299, 70.956 520, 69.631 520 C 68.734 520, 68 520.723, 68 521.607 C 68 522.625, 68.550 523.003, 69.500 522.638 C 70.381 522.300, 71 522.625, 71 523.426 C 71 524.229, 70.039 524.729, 68.659 524.644 C 66.878 524.534, 66.437 524.044, 66.817 522.594 C 67.196 521.144, 66.978 520.901, 65.908 521.578 C 65.133 522.068, 63.638 522.476, 62.583 522.485 C 61.529 522.493, 60.506 522.982, 60.310 523.570 C 59.861 524.918, 63.332 529, 64.926 529 C 65.582 529, 65.798 529.518, 65.406 530.152 C 65.015 530.785, 65.365 531.798, 66.184 532.402 C 68.015 533.752, 70.364 537.998, 69.285 538.006 C 68.853 538.010, 67.721 539.381, 66.770 541.053 C 65.818 542.726, 65.480 543.821, 66.020 543.488 C 66.559 543.155, 67 543.794, 67 544.910 C 67 546.370, 67.454 546.763, 68.624 546.314 C 70.070 545.759, 70.058 545.982, 68.509 548.345 C 67.553 549.805, 66.259 551.014, 65.635 551.032 C 65.011 551.049, 65.400 551.785, 66.500 552.666 C 67.649 553.587, 67.862 554.058, 67 553.773 C 66.088 553.471, 64.325 554.756, 62.500 557.054 C 59.390 560.970, 57.426 561.963, 52.750 561.986 C 49.788 562.001, 49.043 560.581, 51.515 559.633 C 53.281 558.955, 54.901 555.267, 56.111 549.167 C 56.584 546.783, 58.312 542.846, 59.952 540.417 C 62.106 537.225, 62.526 536, 61.466 536 C 60.660 536, 60 536.378, 60 536.840 C 60 538.597, 52.304 540.271, 48.434 539.355 C 44.320 538.382, 42.520 536, 45.899 536 C 48.482 536, 57 527.974, 57 525.541 C 57 521.313, 47.322 525.821, 39.409 533.734 C 35.979 537.163, 39.905 551.913, 45.761 557.599 C 47.963 559.737, 48.108 560.120, 46.500 559.555 C 43.614 558.540, 43.749 558.530, 40.750 559.986 C 39.237 560.720, 38 562.118, 38 563.092 C 38 564.953, 42.021 568.279, 45.618 569.394 C 46.783 569.756, 48.439 570.827, 49.297 571.776 C 50.815 573.453, 51 573.912, 51 576 C 51 577.555, 58.605 577.181, 59.951 575.559 C 60.608 574.767, 61.749 574.350, 62.486 574.633 C 63.223 574.916, 64.073 574.327, 64.377 573.323 C 64.680 572.321, 64.782 572.737, 64.603 574.250 L 64.277 577 74.326 577 L 84.374 577 81.608 574.113 C 79.146 571.543, 78.988 570.993, 80.169 569.102 C 81.895 566.337, 84.389 565.602, 87.109 567.058 C 89.121 568.135, 89.239 568.042, 88.608 565.863 C 88.232 564.564, 87.460 559.225, 86.893 554 C 85.083 537.322, 85.213 534.981, 87.912 535.687 C 88.963 535.962, 90.739 537.040, 91.858 538.083 C 94.966 540.978, 97.256 539.556, 96.634 535.115 C 95.803 529.174, 95.136 528.241, 91.689 528.203 C 83.810 528.116, 78.178 529.185, 76.044 531.174 C 74.079 533.005, 73.894 533.921, 74.396 539.368 L 74.962 545.500 73.441 539.500 C 71.850 533.221, 72.182 529.011, 74.269 528.985 C 74.946 528.976, 76.125 528.573, 76.890 528.089 C 78.041 527.360, 77.889 526.403, 76.007 522.514 C 74.757 519.932, 73.511 515.844, 73.239 513.429 C 72.967 511.015, 72.332 509.295, 71.828 509.606 C 71.325 509.917, 70.257 509.628, 69.456 508.964 C 68.262 507.973, 68 508.122, 68 509.794 M 317 509.941 C 317 510.459, 317.450 511.160, 318 511.500 C 318.550 511.840, 319 511.416, 319 510.559 C 319 509.702, 318.550 509, 318 509 C 317.450 509, 317 509.423, 317 509.941 M 39 520.031 C 39 520.564, 39.675 521, 40.500 521 C 41.325 521, 42 520.823, 42 520.607 C 42 520.391, 41.325 519.955, 40.500 519.638 C 39.675 519.322, 39 519.499, 39 520.031 M 318.495 522.008 C 318.153 522.562, 318.576 523.719, 319.436 524.579 C 320.296 525.439, 321 525.687, 321 525.130 C 321 524.574, 320.543 523.835, 319.984 523.490 C 319.425 523.144, 319.226 522.443, 319.543 521.931 C 319.859 521.419, 319.893 521, 319.618 521 C 319.343 521, 318.838 521.453, 318.495 522.008 M 30.712 526.784 L 26 531.569 26 538.662 C 26 542.705, 26.645 547.300, 27.500 549.346 C 29.247 553.526, 29.382 555, 28.020 555 C 26.773 555, 23.459 548.497, 22.543 544.251 C 22.157 542.464, 20.877 540.327, 19.698 539.501 C 17.666 538.077, 12 537.377, 12 538.550 C 12 538.852, 13.575 540.721, 15.500 542.703 C 17.425 544.685, 19 546.852, 19 547.519 C 19 548.185, 19.863 549.827, 20.918 551.168 C 23.279 554.170, 24.617 560.501, 23.090 561.444 C 21.043 562.710, 21.995 564.039, 24.498 563.411 C 25.872 563.066, 27.771 563.082, 28.720 563.446 C 31.351 564.456, 28.393 565.966, 23.748 565.985 C 20.806 565.997, 19.294 566.729, 16.748 569.373 C 12.169 574.129, 9.539 575.267, 4.925 574.487 C 1.728 573.947, 1 574.119, 1 575.412 C 1 576.686, 2.186 577, 7 577 C 10.300 577, 13 576.566, 13 576.035 C 13 573.743, 16.754 573.064, 20.751 574.634 C 24.440 576.084, 25.475 576.062, 34.053 574.353 C 43.387 572.494, 46.298 570.615, 41.651 569.449 C 39.127 568.815, 34.737 564.581, 31.530 559.686 C 29.479 556.556, 30.855 556.078, 33.500 559 C 35.779 561.519, 36.655 561.514, 38.013 558.976 C 38.933 557.257, 38.608 556.541, 35.855 554.226 C 29.851 549.176, 29.156 547.959, 28.379 541.133 C 27.206 530.832, 27.061 531.199, 34.704 525.223 C 35.916 524.275, 36.928 523.163, 36.954 522.750 C 37.059 521.041, 35.162 522.267, 30.712 526.784 M 181.609 530.462 C 178.294 533.251, 177.818 534.137, 178.394 536.435 C 179.502 540.849, 182.247 539.264, 184.239 533.060 C 185.195 530.081, 185.870 527.541, 185.739 527.415 C 185.607 527.289, 183.749 528.660, 181.609 530.462 M 281.058 529 C 280.963 529.275, 280.719 531.075, 280.517 533 C 279.915 538.721, 285.053 543.304, 301.972 552.142 C 308.481 555.541, 309.339 555.607, 313.015 552.989 C 315.070 551.526, 316.133 549.606, 316.919 545.940 C 319.088 535.826, 317.503 529.783, 314.069 535.079 C 311.375 539.235, 308.021 542.151, 306.316 541.819 C 305.416 541.643, 304.103 539.700, 303.399 537.500 L 302.119 533.500 302.671 537.250 C 303.188 540.765, 301.973 542.383, 300.548 540.077 C 300.234 539.569, 298.520 538.846, 296.739 538.470 C 292.784 537.634, 284 533.023, 284 531.782 C 284 531.287, 283.584 531.139, 283.076 531.453 C 282.567 531.767, 281.945 531.231, 281.692 530.262 C 281.439 529.293, 281.154 528.725, 281.058 529 M 163.061 534.107 C 161.928 536.282, 161 538.921, 161 539.972 C 161 541.022, 160.622 542.116, 160.159 542.402 C 159.697 542.688, 158.511 545.977, 157.525 549.711 C 156.539 553.445, 155.343 556.928, 154.866 557.450 C 153.077 559.413, 154.120 560.156, 157.795 559.535 C 159.882 559.182, 162.772 559.343, 164.217 559.893 C 166.584 560.792, 167.123 560.524, 169.637 557.196 C 171.173 555.163, 173.642 552.188, 175.123 550.584 C 178.067 547.396, 179.657 542.024, 177.965 540.978 C 177.383 540.619, 176.140 538.858, 175.203 537.066 C 174.115 534.985, 171.986 533.147, 169.311 531.980 L 165.122 530.153 163.061 534.107 M 109 535 C 109 535.550, 109.450 536, 110 536 C 110.550 536, 111 535.550, 111 535 C 111 534.450, 110.550 534, 110 534 C 109.450 534, 109 534.450, 109 535 M 99.872 536.692 C 98.701 538.136, 98.708 538.259, 99.920 537.528 C 100.985 536.886, 101.180 537.088, 100.701 538.336 C 100.322 539.325, 100.557 540.006, 101.281 540.015 C 102.152 540.026, 102.119 540.272, 101.166 540.876 C 100.107 541.547, 100.186 541.857, 101.545 542.379 C 102.899 542.899, 103.148 543.863, 102.730 546.979 C 102.368 549.675, 102.643 551.289, 103.600 552.083 C 104.741 553.030, 105 552.748, 105 550.563 C 105 549.030, 105.428 548.147, 106 548.500 C 107.840 549.637, 109.091 547.948, 107.550 546.407 C 106.744 545.601, 106.307 544.363, 106.579 543.656 C 106.850 542.948, 106.650 541.274, 106.134 539.935 L 105.196 537.500 104.261 539.926 L 103.325 542.353 102.740 540.115 C 102.353 538.635, 102.665 537.682, 103.661 537.300 C 104.886 536.830, 104.918 536.564, 103.834 535.876 C 101.940 534.676, 101.421 534.783, 99.872 536.692 M 118.813 536.683 C 119.534 536.972, 120.397 536.936, 120.729 536.604 C 121.061 536.272, 120.471 536.036, 119.417 536.079 C 118.252 536.127, 118.015 536.364, 118.813 536.683 M 65.564 538.707 C 65.022 540.132, 65.136 540.247, 66.124 539.267 C 66.808 538.588, 67.115 537.781, 66.807 537.474 C 66.499 537.166, 65.940 537.721, 65.564 538.707 M 114.607 538.582 C 113.789 540.714, 113.843 542, 114.750 541.999 C 115.162 541.999, 115.565 540.874, 115.644 539.499 C 115.810 536.622, 115.473 536.324, 114.607 538.582 M 94.734 540.599 C 94.405 540.928, 95.051 542.956, 96.171 545.104 C 98.245 549.082, 100 550.922, 100 549.118 C 100 548.568, 99.550 547.840, 99 547.500 C 98.450 547.160, 98 545.784, 98 544.441 C 98 543.098, 97.523 542, 96.941 542 C 96.359 542, 96.160 541.550, 96.500 541 C 97.163 539.928, 95.731 539.603, 94.734 540.599 M 111.670 541.766 C 111.984 543.012, 112.637 544.276, 113.121 544.575 C 114.489 545.420, 114.156 543.591, 112.550 541.441 C 111.151 539.568, 111.120 539.580, 111.670 541.766 M 183.981 541.523 C 182.226 543.638, 185.335 550.391, 189.541 553.599 C 194.827 557.631, 195.095 556.348, 190.706 548.004 C 188.393 543.606, 186.218 540.006, 185.872 540.004 C 185.527 540.002, 184.676 540.685, 183.981 541.523 M 68.624 542.539 C 67.659 545.053, 67.943 545.702, 69.122 543.675 C 69.706 542.671, 69.973 541.639, 69.715 541.382 C 69.458 541.124, 68.966 541.645, 68.624 542.539 M 3.617 548.350 C 1.406 552.870, 1 555.046, 1 562.381 C 1 571.814, 1.608 572.817, 6.567 571.573 C 11.497 570.335, 15.313 555.456, 11.642 551.785 C 10.895 551.038, 9.679 548.756, 8.941 546.713 C 8.202 544.671, 7.291 543, 6.916 543 C 6.541 543, 5.057 545.407, 3.617 548.350 M 99 543.976 C 99 544.604, 99.416 544.861, 99.924 544.547 C 100.433 544.233, 101.062 544.665, 101.323 545.507 C 101.689 546.692, 101.763 546.657, 101.648 545.352 C 101.483 543.469, 99 542.179, 99 543.976 M 108.870 549.305 C 107.741 550.164, 107.311 551.823, 107.474 554.700 C 107.735 559.338, 106.530 562.318, 105.214 560.288 C 104.776 559.612, 103.458 559.329, 102.238 559.648 C 100.593 560.078, 100.258 560.629, 100.891 561.860 C 101.728 563.488, 102.205 567.508, 102.300 573.750 C 102.341 576.434, 102.740 577, 104.589 577 C 106.687 577, 106.808 576.632, 106.526 571.127 C 106.360 567.898, 106.617 564.635, 107.097 563.877 C 107.693 562.936, 107.974 563.582, 107.985 565.917 C 108.003 569.913, 108.830 569.618, 109.386 565.417 C 109.598 563.812, 110.099 560.195, 110.498 557.378 C 110.996 553.863, 110.860 552.031, 110.063 551.539 C 109.184 550.996, 109.187 550.480, 110.074 549.411 C 111.503 547.689, 111.046 547.648, 108.870 549.305 M 284.694 558.335 C 284.800 563.926, 284.913 569.464, 284.944 570.643 C 285.010 573.149, 287.969 574.653, 289.155 572.784 C 289.913 571.590, 290.423 572.427, 290.094 574.324 C 290.015 574.778, 290.412 574.864, 290.975 574.515 C 293.457 572.981, 290.959 556.500, 288.244 556.500 C 287.652 556.500, 286.829 556.163, 286.417 555.750 C 286.004 555.337, 286.529 554.986, 287.583 554.968 C 289.293 554.940, 289.329 554.805, 287.912 553.718 C 287.039 553.048, 286.491 552.005, 286.696 551.400 C 286.900 550.795, 286.489 549.821, 285.783 549.235 C 284.751 548.378, 284.538 550.159, 284.694 558.335 M 113 551 C 113 551.550, 113.450 552, 114 552 C 114.550 552, 115 551.550, 115 551 C 115 550.450, 114.550 550, 114 550 C 113.450 550, 113 550.450, 113 551 M 170.004 562.710 C 170.002 563.375, 168.195 564.461, 165.988 565.122 C 163.782 565.783, 161.476 566.926, 160.866 567.662 C 160.255 568.398, 158.899 569, 157.853 569 C 156.764 569, 155.560 570.028, 155.037 571.403 C 154.534 572.724, 153.646 574.101, 153.062 574.462 C 150.065 576.314, 153.014 577, 163.975 577 L 175.950 577 175.324 573.872 C 174.642 570.462, 170.011 560.745, 170.004 562.710 M 32.500 565 C 32.160 565.550, 32.359 566, 32.941 566 C 33.523 566, 34 565.550, 34 565 C 34 564.450, 33.802 564, 33.559 564 C 33.316 564, 32.840 564.450, 32.500 565 M 97 566.059 C 97 566.641, 97.450 566.840, 98 566.500 C 98.550 566.160, 99 565.684, 99 565.441 C 99 565.198, 98.550 565, 98 565 C 97.450 565, 97 565.477, 97 566.059 M 61.195 570.500 C 61.215 572.150, 61.439 572.704, 61.693 571.731 C 61.947 570.758, 61.930 569.408, 61.656 568.731 C 61.382 568.054, 61.175 568.850, 61.195 570.500 M 302.022 574.184 L 300.038 576.868 313.269 576.888 L 326.500 576.908 320.032 573.917 C 311.617 570.025, 305.026 570.122, 302.022 574.184" stroke="none" fill="black" fill-rule="evenodd"/>
</svg>